<?xml version="1.0" encoding="UTF-8" standalone="no"?>
<svg
   xmlns:dc="http://purl.org/dc/elements/1.1/"
   xmlns:cc="http://creativecommons.org/ns#"
   xmlns:rdf="http://www.w3.org/1999/02/22-rdf-syntax-ns#"
   xmlns:svg="http://www.w3.org/2000/svg"
   xmlns="http://www.w3.org/2000/svg"
   xmlns:xlink="http://www.w3.org/1999/xlink"
   xmlns:sodipodi="http://sodipodi.sourceforge.net/DTD/sodipodi-0.dtd"
   xmlns:inkscape="http://www.inkscape.org/namespaces/inkscape"
   version="1.1"
   width="294.07379"
   height="125.701"
   id="svg521"
   sodipodi:docname="quillResidence_alt.svg"
   inkscape:version="1.0.1 (3bc2e813f5, 2020-09-07)">
  <metadata
     id="metadata527">
    <rdf:RDF>
      <cc:Work
         rdf:about="">
        <dc:format>image/svg+xml</dc:format>
        <dc:type
           rdf:resource="http://purl.org/dc/dcmitype/StillImage" />
        <dc:title />
      </cc:Work>
    </rdf:RDF>
  </metadata>
  <defs
     id="defs525">
    <linearGradient
       inkscape:collect="always"
       id="linearGradient861">
      <stop
         style="stop-color:#ffffff;stop-opacity:1;"
         offset="0"
         id="stop857" />
      <stop
         style="stop-color:#ffffff;stop-opacity:0;"
         offset="1"
         id="stop859" />
    </linearGradient>
    <linearGradient
       inkscape:collect="always"
       xlink:href="#linearGradient861"
       id="linearGradient863"
       x1="400.3923"
       y1="325.6926"
       x2="480.1275"
       y2="325.6926"
       gradientUnits="userSpaceOnUse" />
  </defs>
  <sodipodi:namedview
     pagecolor="#ffffff"
     bordercolor="#666666"
     borderopacity="1"
     objecttolerance="10"
     gridtolerance="10"
     guidetolerance="10"
     inkscape:pageopacity="0"
     inkscape:pageshadow="2"
     inkscape:window-width="1920"
     inkscape:window-height="1017"
     id="namedview523"
     showgrid="false"
     fit-margin-top="0"
     fit-margin-left="0"
     fit-margin-right="0"
     fit-margin-bottom="0"
     inkscape:zoom="3.8011668"
     inkscape:cx="148.13937"
     inkscape:cy="40.522777"
     inkscape:window-x="-8"
     inkscape:window-y="-8"
     inkscape:window-maximized="1"
     inkscape:current-layer="svg521"
     inkscape:document-rotation="0" />
  <g
     id="Layer1000"
     transform="matrix(0.75167714,0,0,0.75167714,-264.18845,-159.18809)">
    <defs
       id="defs16">
      <linearGradient
         id="grad1">
        <stop
           offset="0.0000%"
           stop-color="#23bcc3"
           stop-opacity="1.0000"
           id="stop8" />
        <stop
           offset="62.0000%"
           stop-color="#0090bc"
           stop-opacity="1.0000"
           id="stop10" />
        <stop
           offset="100.0000%"
           stop-color="#0087bc"
           stop-opacity="1.0000"
           id="stop12" />
      </linearGradient>
      <linearGradient
         xlink:href="#grad1"
         id="grad2"
         x1="0"
         y1="0"
         x2="0"
         y2="1"
         gradientTransform="rotate(160,0.5,0.5)"
         gradientUnits="objectBoundingBox" />
    </defs>
    <g
       id="Layer1004">
      <path
         d="m 475.0084,317.9656 c 16.1438,8.9023 29.0006,13.2874 41.0601,13.2874 14.7485,0 25.9098,-4.2858 31.5909,-6.8593 0.5986,-0.3002 0.7978,-0.5831 0.7978,-0.9808 0,-0.2979 -0.1992,-0.5987 -0.5987,-0.5987 -0.2984,0 -0.7978,0.2009 -1.3947,0.4001 -6.8772,2.7744 -14.6504,3.8539 -19.6329,3.8539 -4.9832,0 -20.1306,-0.4831 -41.9572,-11.694 l -20.429,-10.5309 c 6.577,-4.2858 17.6395,-15.9458 17.6395,-33.4855 0,-23.1198 -16.7436,-37.3713 -39.1666,-37.3713 -27.5059,0 -39.2647,22.8213 -39.2647,38.9669 0,17.9386 11.361,39.1654 38.9669,39.1654 5.281,0 12.0577,-1.4957 15.6456,-3.3892 z m -61.888,-47.8028 v 0 c 0,-21.8255 12.4573,-32.7876 29.1005,-32.7876 15.7454,0 30.2965,12.8556 30.2965,36.7732 0,29.0006 -18.5366,34.1834 -27.5065,34.1834 -17.9392,0 -31.8905,-14.95 -31.8905,-38.169 z m 84.0882,13.4542 v 0 -12.4578 c 0,-13.1564 0,-15.5463 -0.1998,-18.2377 -0.1991,-2.6907 -0.6985,-4.2857 -3.5878,-4.6835 -0.6985,-0.1016 -2.1931,-0.1986 -2.9892,-0.1986 -0.2996,0 -0.6985,-0.4 -0.6985,-0.6985 0,-0.4988 0.3989,-0.6979 1.3953,-0.6979 3.9867,0 9.2689,0.1991 10.065,0.1991 0.7978,0 6.2791,-0.1991 8.8706,-0.1991 0.9964,0 1.4946,0.1991 1.4946,0.6979 0,0.2985 -0.399,0.6985 -0.7979,0.6985 -0.5974,0 -1.0956,0 -2.1913,0.1986 -2.293,0.3978 -2.7918,1.8935 -2.9904,4.6835 -0.1986,2.6914 -0.1986,5.0813 -0.1986,18.2377 v 11.8592 c 0,12.2592 2.6908,17.3405 6.4772,20.7292 4.2852,3.8863 8.0716,4.5842 13.0553,4.5842 5.3809,0 10.5638,-2.3922 13.553,-5.9801 4.086,-4.8827 4.9831,-11.8592 4.9831,-20.5289 v -10.6636 c 0,-13.1564 -0.0993,-15.5463 -0.1991,-18.2377 -0.1005,-2.6907 -0.5987,-4.2857 -3.488,-4.6835 -0.6979,-0.1016 -2.1925,-0.1986 -2.9892,-0.1986 -0.4001,0 -0.6985,-0.4 -0.6985,-0.6985 0,-0.4988 0.3989,-0.6979 1.3953,-0.6979 3.8869,0 8.9693,0.1991 9.4681,0.1991 0.598,0 4.7828,-0.1991 7.3742,-0.1991 0.9964,0 1.3959,0.1991 1.3959,0.6979 0,0.2985 -0.3002,0.6985 -0.6979,0.6985 -0.5987,0 -1.0957,0 -2.1914,0.1986 -2.3929,0.4971 -2.8922,1.8935 -3.0908,4.6835 -0.1992,2.6914 -0.0993,5.0813 -0.0993,18.2377 v 9.0686 c 0,9.169 -1.1956,19.4332 -8.1721,25.4133 -6.3784,5.4808 -13.1552,6.1793 -18.3381,6.1793 -2.8893,0 -12.0577,-0.1986 -18.237,-5.9807 -4.2852,-3.985 -7.6727,-9.8664 -7.6727,-22.2227 z m 82.6911,-12.4578 v 0 c 0,-13.1564 0,-15.5463 0.0999,-18.2377 0.2009,-2.9891 0.6979,-4.1864 3.0902,-4.6835 0.9969,-0.1986 1.5933,-0.1986 2.1919,-0.1986 0.2985,0 0.698,-0.4 0.698,-0.6985 0,-0.4988 -0.3995,-0.6979 -1.3959,-0.6979 -2.6913,0 -8.3712,0.1991 -8.769,0.1991 -0.4993,0 -5.9801,-0.1991 -8.87,-0.1991 -0.9964,0 -1.3959,0.1991 -1.3959,0.6979 0,0.2985 0.3002,0.6985 0.698,0.6985 0.5986,0 1.6943,0.097 2.6907,0.2979 1.8935,0.3978 2.5914,1.6949 2.7906,4.5842 0.1986,2.6914 0.1986,5.0813 0.1986,18.2377 v 14.9477 c 0,8.172 -0.0993,14.8507 -0.4971,18.3386 -0.3002,2.4905 -0.5986,4.0855 -2.2929,4.485 -0.7979,0.1991 -1.8935,0.3977 -2.6908,0.3977 -0.4976,0 -0.6962,0.4001 -0.6962,0.6985 0,0.4971 0.4971,0.698 1.3942,0.698 2.6907,0 8.1715,-0.3002 8.6708,-0.3002 0.3978,0 6.0777,0.3002 10.9627,0.3002 0.9964,0 1.3941,-0.3002 1.3941,-0.698 0,-0.2984 -0.1991,-0.6985 -0.6979,-0.6985 -0.7961,0 -2.689,-0.1986 -3.9862,-0.3977 -2.5908,-0.3995 -2.8893,-1.9945 -3.1901,-4.485 -0.3977,-3.4879 -0.3977,-10.1666 -0.3977,-18.3386 z m 34.0605,0 v 0 c 0,-13.1564 0,-15.5463 0.0998,-18.2377 0.1986,-2.9891 0.6957,-4.2857 3.2871,-4.7851 0.9987,-0.097 2.293,-0.1986 2.8916,-0.1986 0.2985,0 0.6963,-0.2984 0.6963,-0.5969 0,-0.4988 -0.4971,-0.6979 -1.3942,-0.6979 -2.6907,0 -9.2695,0.1991 -9.6672,0.1991 -0.4977,0 -5.979,-0.1991 -9.9663,-0.1991 -0.9964,0 -1.3942,0.1991 -1.3942,0.6979 0,0.2985 0.3978,0.6985 0.6962,0.6985 0.7979,0 2.293,0.097 2.991,0.1986 2.8899,0.3978 3.3892,1.7942 3.5878,4.6835 0.1992,2.6914 0.1992,5.0813 0.1992,18.2377 v 14.9477 c 0,8.172 0,14.8507 -0.4994,18.3386 -0.3977,2.4905 -0.5986,4.0855 -2.2912,4.485 -0.7973,0.1991 -1.8953,0.3977 -2.6908,0.3977 -0.4987,0 -0.6979,0.4001 -0.6979,0.6985 0,0.4971 0.4993,0.698 1.3964,0.698 1.3936,0 3.2871,-0.1016 5.0813,-0.2009 1.6944,-0.0993 3.1901,-0.0993 3.5879,-0.0993 2.5914,0 5.58,0.0993 9.5679,0.1986 4.0849,0.2009 8.9693,0.3002 15.2462,0.3002 4.6858,0 4.9837,-0.3002 5.5829,-2.293 0.6956,-2.4904 1.2943,-7.5734 1.2943,-8.4705 0,-0.8966 -0.1986,-1.2943 -0.5987,-1.2943 -0.497,0 -0.7972,0.497 -0.8971,1.0957 -0.2979,1.692 -0.9958,3.4885 -2.0921,4.7828 -2.0921,2.4921 -5.9801,2.5914 -10.5643,2.5914 -6.8755,0 -10.2642,-0.5986 -11.6606,-1.9928 -1.5928,-1.4951 -1.7919,-6.5787 -1.7919,-19.0348 z m 50.6015,0 v 0 c 0,-13.1564 0,-15.5463 0.0993,-18.2377 0.2009,-2.9891 0.6979,-4.2857 3.2893,-4.7851 0.9964,-0.097 2.293,-0.1986 2.8899,-0.1986 0.3002,0 0.698,-0.2984 0.698,-0.5969 0,-0.4988 -0.4988,-0.6979 -1.3959,-0.6979 -2.6907,0 -9.2678,0.1991 -9.6661,0.1991 -0.4988,0 -5.9801,-0.1991 -9.9657,-0.1991 -0.9964,0 -1.3959,0.1991 -1.3959,0.6979 0,0.2985 0.3995,0.6985 0.698,0.6985 0.7972,0 2.2929,0.097 2.9892,0.1986 2.8899,0.3978 3.3892,1.7942 3.5878,4.6835 0.1992,2.6914 0.1992,5.0813 0.1992,18.2377 v 14.9477 c 0,8.172 0,14.8507 -0.4977,18.3386 -0.3994,2.4905 -0.5986,4.0855 -2.2929,4.485 -0.7979,0.1991 -1.8935,0.3977 -2.6908,0.3977 -0.4976,0 -0.6962,0.4001 -0.6962,0.6985 0,0.4971 0.4971,0.698 1.3942,0.698 1.3958,0 3.2893,-0.1016 5.0835,-0.2009 1.6944,-0.0993 3.1878,-0.0993 3.5873,-0.0993 2.592,0 5.5812,0.0993 9.5662,0.1986 4.0872,0.2009 8.9699,0.3002 15.2485,0.3002 4.6835,0 4.9843,-0.3002 5.5806,-2.293 0.6979,-2.4904 1.2966,-7.5734 1.2966,-8.4705 0,-0.8966 -0.2009,-1.2943 -0.5987,-1.2943 -0.4993,0 -0.7972,0.497 -0.8971,1.0957 -0.2978,1.692 -0.9964,3.4885 -2.092,4.7828 -2.0944,2.4921 -5.9802,2.5914 -10.5644,2.5914 -6.8755,0 -10.2642,-0.5986 -11.6606,-1.9928 -1.5951,-1.4951 -1.7936,-6.5787 -1.7936,-19.0348 z"
         style="fill:#663333;fill-rule:evenodd"
         id="path499" />
      <defs
         id="defs506">
        <linearGradient
           id="grad3"
           gradientTransform="scale(1.7222743,0.58062759)"
           x1="232.27438"
           y1="400.49835"
           x2="399.79398"
           y2="400.49835"
           gradientUnits="userSpaceOnUse">
          <stop
             offset="0%"
             stop-color="#f7971c"
             stop-opacity="1.0000"
             id="stop501" />
          <stop
             offset="100%"
             stop-color="#ed2a5b"
             stop-opacity="1.0000"
             id="stop503" />
        </linearGradient>
      </defs>
      <path
         d="m 471.3958,316.5201 c 16.1438,8.9017 29,13.2868 41.0589,13.2868 14.7485,0 25.9109,-4.284 31.5909,-6.8593 0.5986,-0.2985 0.7978,-0.5808 0.7978,-0.9803 0,-0.2984 -0.1992,-0.5969 -0.5975,-0.5969 -0.2985,0 -0.7978,0.1992 -1.3953,0.3978 -6.8761,2.7744 -14.6498,3.8545 -19.6324,3.8545 -4.9831,0 -20.1323,-0.4832 -41.9572,-11.6941 l -20.4302,-10.5308 c 6.5771,-4.2858 17.6402,-15.9441 17.6402,-33.4856 0,-23.1203 -16.7431,-37.3718 -39.166,-37.3718 -27.506,0 -39.2648,22.8219 -39.2648,38.9669 0,17.9392 11.3599,39.1654 38.9657,39.1654 5.2822,0 12.059,-1.4957 15.6457,-3.3886 z m -61.8892,-47.8034 v 0 c 0,-21.8249 12.4578,-32.787 29.1004,-32.787 15.7455,0 30.2966,12.8556 30.2966,36.7726 0,29.0011 -18.5367,34.184 -27.506,34.184 -17.938,0 -31.891,-14.9483 -31.891,-38.1696 z m 84.0881,13.4542 v 0 -12.4578 c 0,-13.1541 0,-15.5463 -0.1997,-18.2371 -0.1992,-2.6907 -0.6974,-4.2858 -3.5873,-4.6841 -0.6979,-0.0993 -2.1925,-0.1986 -2.9897,-0.1986 -0.2996,0 -0.698,-0.3995 -0.698,-0.6979 0,-0.4994 0.3984,-0.6985 1.3959,-0.6985 3.9856,0 9.2678,0.1991 10.0656,0.1991 0.7961,0 6.2786,-0.1991 8.8688,-0.1991 0.9976,0 1.4958,0.1991 1.4958,0.6985 0,0.2984 -0.4001,0.6979 -0.7978,0.6979 -0.5987,0 -1.0969,0 -2.1926,0.1986 -2.2924,0.3983 -2.79,1.8935 -2.9903,4.6841 -0.1986,2.6908 -0.1986,5.083 -0.1986,18.2371 v 11.8592 c 0,12.2592 2.6908,17.3405 6.4778,20.7298 4.2857,3.8857 8.0722,4.5842 13.0553,4.5842 5.3815,0 10.5632,-2.3911 13.5535,-5.9784 4.0861,-4.8844 4.982,-11.8615 4.982,-20.5306 v -10.6642 c 0,-13.1541 -0.0987,-15.5463 -0.1986,-18.2371 -0.0998,-2.6907 -0.598,-4.2858 -3.4874,-4.6841 -0.6985,-0.0993 -2.1931,-0.1986 -2.9903,-0.1986 -0.3989,0 -0.6968,-0.3995 -0.6968,-0.6979 0,-0.4994 0.3978,-0.6985 1.3936,-0.6985 3.8874,0 8.9699,0.1991 9.4681,0.1991 0.5986,0 4.7851,-0.1991 7.3742,-0.1991 0.9987,0 1.3965,0.1991 1.3965,0.6985 0,0.2984 -0.3008,0.6979 -0.6985,0.6979 -0.5981,0 -1.0957,0 -2.1914,0.1986 -2.3929,0.4976 -2.8911,1.8935 -3.0908,4.6841 -0.1986,2.6908 -0.0982,5.083 -0.0982,18.2371 v 9.0692 c 0,9.1684 -1.1967,19.4343 -8.1732,25.4127 -6.3778,5.4813 -13.1546,6.1793 -18.3369,6.1793 -2.8893,0 -12.0578,-0.1986 -18.2382,-5.9801 -4.2847,-3.9856 -7.6728,-9.8664 -7.6728,-22.2233 z m 82.6917,-12.4578 v 0 c 0,-13.1541 0,-15.5463 0.0993,-18.2371 0.2009,-2.9892 0.698,-4.1865 3.0908,-4.6841 0.9964,-0.1986 1.5928,-0.1986 2.1914,-0.1986 0.3002,0 0.6985,-0.3995 0.6985,-0.6979 0,-0.4994 -0.3983,-0.6985 -1.3941,-0.6985 -2.6931,0 -8.373,0.1991 -8.7713,0.1991 -0.4988,0 -5.9801,-0.1991 -8.8694,-0.1991 -0.997,0 -1.3948,0.1991 -1.3948,0.6985 0,0.2984 0.2985,0.6979 0.6962,0.6979 0.5987,0 1.6944,0.0993 2.6908,0.2985 1.8935,0.3977 2.592,1.6943 2.7906,4.5842 0.1991,2.6908 0.1991,5.083 0.1991,18.2371 v 14.95 c 0,8.1703 -0.0998,14.8484 -0.4976,18.3369 -0.2984,2.4898 -0.5986,4.0849 -2.293,4.485 -0.7978,0.1985 -1.8935,0.3977 -2.6907,0.3977 -0.4976,0 -0.6962,0.3995 -0.6962,0.6979 0,0.4988 0.497,0.698 1.3941,0.698 2.6908,0 8.1721,-0.3002 8.6709,-0.3002 0.3983,0 6.0782,0.3002 10.9627,0.3002 0.9964,0 1.3941,-0.3002 1.3941,-0.698 0,-0.2984 -0.1986,-0.6979 -0.6962,-0.6979 -0.7972,0 -2.6907,-0.1992 -3.9873,-0.3977 -2.5915,-0.4001 -2.8899,-1.9952 -3.1884,-4.485 -0.3995,-3.4885 -0.3995,-10.1666 -0.3995,-18.3369 z m 34.06,0 v 0 c 0,-13.1541 0,-15.5463 0.0998,-18.2371 0.1986,-2.9892 0.698,-4.2858 3.2877,-4.7834 0.9981,-0.0993 2.293,-0.1986 2.8916,-0.1986 0.2979,0 0.6956,-0.3002 0.6956,-0.5986 0,-0.4994 -0.497,-0.6985 -1.3941,-0.6985 -2.6907,0 -9.2678,0.1991 -9.6673,0.1991 -0.4976,0 -5.9783,-0.1991 -9.9662,-0.1991 -0.9958,0 -1.3936,0.1991 -1.3936,0.6985 0,0.2984 0.3978,0.6979 0.6956,0.6979 0.7978,0 2.293,0.0993 2.9915,0.1986 2.8894,0.3983 3.3887,1.7942 3.5879,4.6841 0.1986,2.6908 0.1986,5.083 0.1986,18.2371 v 14.95 c 0,8.1703 0,14.8484 -0.4988,18.3369 -0.3983,2.4898 -0.5969,4.0849 -2.2913,4.485 -0.7978,0.1985 -1.8935,0.3977 -2.6907,0.3977 -0.4994,0 -0.6985,0.3995 -0.6985,0.6979 0,0.4988 0.4993,0.698 1.3964,0.698 1.3942,0 3.2894,-0.1016 5.0813,-0.1992 1.6943,-0.101 3.1901,-0.101 3.5878,-0.101 2.5915,0 5.5807,0.101 9.568,0.1986 4.0849,0.2009 8.9699,0.3002 15.2461,0.3002 4.6859,0 4.9843,-0.3002 5.583,-2.293 0.6962,-2.4899 1.2943,-7.5734 1.2943,-8.47 0,-0.8971 -0.1986,-1.2948 -0.5981,-1.2948 -0.4976,0 -0.7961,0.497 -0.8954,1.0957 -0.3002,1.6943 -0.9981,3.4885 -2.0938,4.7828 -2.0927,2.4921 -5.979,2.592 -10.5626,2.592 -6.8778,0 -10.2665,-0.5986 -11.6606,-1.9928 -1.5951,-1.4957 -1.7942,-6.5793 -1.7942,-19.0349 z m 50.6038,0 v 0 c 0,-13.1541 0,-15.5463 0.0969,-18.2371 0.2009,-2.9892 0.6986,-4.2858 3.29,-4.7834 0.9958,-0.0993 2.293,-0.1986 2.8916,-0.1986 0.2985,0 0.6962,-0.3002 0.6962,-0.5986 0,-0.4994 -0.4976,-0.6985 -1.3947,-0.6985 -2.6907,0 -9.2695,0.1991 -9.6672,0.1991 -0.4994,0 -5.9807,-0.1991 -9.9657,-0.1991 -0.997,0 -1.3948,0.1991 -1.3948,0.6985 0,0.2984 0.3978,0.6979 0.6963,0.6979 0.7978,0 2.2935,0.0993 2.9915,0.1986 2.8893,0.3983 3.3869,1.7942 3.5878,4.6841 0.1986,2.6908 0.1986,5.083 0.1986,18.2371 v 14.95 c 0,8.1703 0,14.8484 -0.4994,18.3369 -0.3977,2.4898 -0.598,4.0849 -2.293,4.485 -0.7955,0.1985 -1.8935,0.3977 -2.689,0.3977 -0.4987,0 -0.6979,0.3995 -0.6979,0.6979 0,0.4988 0.4976,0.698 1.3941,0.698 1.3965,0 3.29,-0.1016 5.0836,-0.1992 1.6944,-0.101 3.1878,-0.101 3.5879,-0.101 2.5914,0 5.5806,0.101 9.5679,0.1986 4.0849,0.2009 8.9699,0.3002 15.2462,0.3002 4.6835,0 4.9843,-0.3002 5.5806,-2.293 0.6979,-2.4899 1.2972,-7.5734 1.2972,-8.47 0,-0.8971 -0.1992,-1.2948 -0.5993,-1.2948 -0.497,0 -0.7972,0.497 -0.8965,1.0957 -0.2985,1.6943 -0.9964,3.4885 -2.0927,4.7828 -2.092,2.4921 -5.9801,2.592 -10.5643,2.592 -6.8749,0 -10.2642,-0.5986 -11.66,-1.9928 -1.5934,-1.4957 -1.7919,-6.5793 -1.7919,-19.0349 z"
         style="fill:url(#grad3)"
         id="path508" />
    </g>
    <g
       id="Layer1005">
      <path
         d="M 551.4565,325.6926 H 694.114"
         style="fill:none;stroke:#ffffff;stroke-width:1.4851;stroke-linecap:butt;stroke-linejoin:miter;stroke-dasharray:none;stroke-opacity:1"
         id="path511" />
      <path
         d="m 400.3923,325.6926 h 79.7352"
         style="fill:url(#linearGradient863);fill-opacity:1;stroke:#ffffff;stroke-width:1.4851;stroke-linecap:butt;stroke-linejoin:miter;stroke-dasharray:none;stroke-opacity:1"
         id="path513" />
    </g>
    <text
       x="467.4306"
       y="357.92499"
       id="text518"
       style="fill:#ffffff"><tspan
         font-family="'Bahnschrift SemiBold'"
         font-size="24px"
         fill="#565757"
         id="tspan516"
         style="fill:#ffffff">RESIDENCES</tspan></text>
  </g>
  <rect
     style="fill:none"
     id="rect535"
     width="301.35825"
     height="141.37794"
     x="-8.6465197"
     y="-7.0797801" />
</svg>
