<svg width="1440" height="90" xmlns="http://www.w3.org/2000/svg">

 <g>
  <title>Layer 1</title>
  <path stroke="null" id="svg_1" d="m0,58.8l26.7,-3.27688c26.6,-3.15438 80.3,-9.89188 133.3,-11.42313c53.3,-1.53125 107,1.53125 160,9.8c53.3,8.26875 107,21.13125 160,27.77688c53.3,6.52313 107,6.52313 160,4.9c53.3,-1.74563 107,-4.80813 160,-4.9c53.3,0.09188 107,3.15438 160,0c53.3,-3.27688 107,-13.07688 160,-11.45375c53.3,1.74563 107,14.60813 160,21.25375c53.3,6.52313 107,6.52313 133,6.52313l27,0l0,-98l-26.7,0c-26.6,0 -80.3,0 -133.3,0c-53.3,0 -107,0 -160,0c-53.3,0 -107,0 -160,0c-53.3,0 -107,0 -160,0c-53.3,0 -107,0 -160,0c-53.3,0 -107,0 -160,0c-53.3,0 -107,0 -160,0c-53.3,0 -107,0 -160,0c-53.3,0 -107,0 -133,0l-27,0l0,58.8z" fill="#000000"/>
 </g>
</svg>